HIERARCHY
ROOT simHips
{
  OFFSET -166.997 99.9426 6.42935
  CHANNELS 6 Xposition Yposition Zposition Zrotation Xrotation Yrotation
  JOINT simSpine
  {
    OFFSET -0.000355721 21.3001 -0.016921
    CHANNELS 3 Zrotation Xrotation Yrotation
    JOINT simLeftArm
    {
      OFFSET 13.5181 21.3012 0
      CHANNELS 3 Zrotation Xrotation Yrotation
      JOINT simLeftForeArm
      {
        OFFSET 24.5783 0 0
        CHANNELS 3 Zrotation Xrotation Yrotation
        JOINT simLeftHand
        {
          OFFSET 24.5783 0 0
          CHANNELS 3 Zrotation Xrotation Yrotation
          End Site
          {
            OFFSET 7.32568 1.52588e-05 0.0169305
          }
        }
      }
    }
    JOINT simHead
    {
      OFFSET 0 27.4458 -0.00489235
      CHANNELS 3 Zrotation Xrotation Yrotation
      End Site
      {
        OFFSET 0 0 0
      }
    }
    JOINT simRightArm
    {
      OFFSET -13.5174 21.3012 0
      CHANNELS 3 Zrotation Xrotation Yrotation
      JOINT simRightForeArm
      {
        OFFSET -24.5783 0 0
        CHANNELS 3 Zrotation Xrotation Yrotation
        JOINT simRightHand
        {
          OFFSET -24.5783 0 0
          CHANNELS 3 Zrotation Xrotation Yrotation
          End Site
          {
            OFFSET -7.32568 1.52588e-05 0.0169305
          }
        }
      }
    }
  }
  JOINT simRightUpLeg
  {
    OFFSET -8.44614 -9.41038 0.835684
    CHANNELS 3 Zrotation Xrotation Yrotation
    JOINT simRightLeg
    {
      OFFSET 0 -40.9639 0
      CHANNELS 3 Zrotation Xrotation Yrotation
      JOINT simRightFoot
      {
        OFFSET 0 -40.9639 0
        CHANNELS 3 Zrotation Xrotation Yrotation
        End Site
        {
          OFFSET 0.50614 -9.67405 14.6709
        }
      }
    }
  }
  JOINT simLeftUpLeg
  {
    OFFSET 8.44614 -9.41038 0.835684
    CHANNELS 3 Zrotation Xrotation Yrotation
    JOINT simLeftLeg
    {
      OFFSET 0 -40.9639 0
      CHANNELS 3 Zrotation Xrotation Yrotation
      JOINT simLeftFoot
      {
        OFFSET 0 -40.9639 0
        CHANNELS 3 Zrotation Xrotation Yrotation
        End Site
        {
          OFFSET -0.50614 -9.67405 14.6709
        }
      }
    }
  }
}
MOTION
Frames:	21
Frame Time:	0.0333333
260.737 101.101 31.5233 1.75605 1.68612 145.41 -10.5392 11.1092 4.18603 4.89981 12.194 -46.7692 19.6147 -6.89715 -34.227 0.00910329 -7.95834 0.722396 10.9989 7.06986 8.11757 3.5055 9.98782 54.5744 -20.5522 -5.83992 38.0607 0.441331 -5.90445 -1.5975 -6.96675 -8.53374 -3.84287 -1.52392 6.52333 -1.87413 2.26636 2.21306 13.7683 -3.71919 14.1994 -8.44757 -2.13444 16.2278 0.951609 -1.70058 -13.766 3.58726 
261.894 100.648 29.1267 0.648744 2.73808 148.628 -10.7601 10.8667 3.56811 4.96823 12.6617 -47.1261 19.7543 -6.98451 -34.4611 0.0207852 -7.63011 0.721488 10.7294 7.13236 8.1974 4.42345 10.4871 54.0371 -20.6976 -5.91392 38.2468 0.450708 -5.16225 -1.59834 -7.20026 -10.2168 -3.76416 -1.67653 6.51365 -1.79648 1.02812 6.95611 14.0413 -4.53552 15.932 -8.61865 -2.05383 16.3451 0.931352 -2.14991 -13.6989 0.358756 
263.108 100.125 26.5439 -0.428627 3.66513 151.794 -10.7865 10.3032 2.8884 4.71235 12.9708 -47.6127 19.5352 -6.84231 -34.1025 0.0233057 -7.2475 0.732947 10.9678 7.53769 8.93609 4.85801 10.705 54.053 -20.6128 -5.86226 38.1093 0.452208 -5.08783 -1.60028 -7.46682 -11.7404 -2.60102 -1.73973 7.79418 -1.77898 0.423752 8.92184 15.1871 -4.89604 17.6796 -8.38593 -1.95542 16.8513 0.908356 -2.62504 -13.6137 -3.11271 
264.472 99.6023 23.7053 -1.56029 4.82575 155.035 -10.8414 10.008 2.99468 5.28759 13.5481 -47.9697 19.6942 -6.93231 -34.3586 0.0249013 -7.69703 0.724836 11.6689 7.41451 8.82727 5.08122 10.9509 53.0528 -20.7806 -5.94395 38.3146 0.454979 -5.34391 -1.60173 -7.92621 -12.0575 -0.462529 -1.62605 9.91475 -1.74145 -0.143824 11.6068 13.4191 -5.34984 20.305 -9.66075 -1.87812 16.5258 0.814673 -2.9185 -13.0645 -5.41563 
265.744 99.0567 20.586 -3.70474 6.05086 158.974 -11.9308 9.38326 1.87589 5.38235 13.8207 -47.7596 19.5029 -6.83177 -34.0828 0.0256835 -6.81504 0.739226 11.9473 7.35174 8.9904 5.61518 11.1517 53.053 -20.8132 -5.95503 38.3466 0.458914 -5.41787 -1.61422 -10.0365 -11.4429 0.408467 -1.07208 14.6201 -1.86321 2.60532 0.574382 8.64261 -6.25608 22.3198 -9.97478 -1.79386 16.791 0.772397 -3.1584 -11.6301 -8.6563 
267.027 98.73 17.4681 -4.29726 6.14496 162.651 -10.6053 8.54063 1.05948 4.66766 13.985 -47.8886 19.3994 -6.75735 -33.8834 0.0264764 -6.6582 0.733959 12.2124 7.03408 9.04054 7.19559 10.9146 52.9706 -20.6552 -5.88115 38.0681 0.457786 -4.59306 -1.6224 -8.85948 -10.0222 4.73111 -0.618931 17.1298 -2.039 2.54233 -4.56751 1.31729 -4.94419 23.8756 -11.1993 -1.70213 17.1546 0.637358 -2.98754 -8.97783 -10.7589 
267.946 99.1795 14.5054 -3.30405 5.72704 166.162 -7.05335 8.15324 0.0219533 3.22851 14.4201 -47.6741 19.3377 -6.7129 -33.7549 -0.0140027 -7.3793 0.730801 11.4485 6.29607 7.94074 8.5305 10.7547 52.7527 -20.6205 -5.89237 38.0792 0.444692 -4.73481 -1.6226 -6.86071 -8.9824 6.67435 -0.0904318 20.9037 -2.33379 2.02903 -9.05259 -2.53462 -1.92324 24.6071 -12.4825 -1.60343 18.1336 0.455649 -2.28091 -4.56545 -11.6762 
268.75 100.102 11.6797 -4.64376 5.97683 170.258 -6.52805 8.17739 -0.830112 4.31401 15.0215 -48.1499 19.2381 -6.63158 -33.5261 0.0295032 -8.10191 0.750498 11.421 5.50949 7.22804 9.2305 10.7933 52.0767 -20.7247 -5.93644 38.1846 0.461941 -5.4204 -1.6238 -8.80426 -6.21293 5.34251 -0.0315766 21.3433 -2.24266 1.69595 -11.3806 -3.70957 -1.13497 24.8133 -13.2828 -1.58238 18.8182 0.377067 -1.26157 1.40984 -11.5333 
269.359 100.866 8.94369 -5.45487 5.48679 174.555 -5.20409 7.61571 -2.33767 5.22835 15.0891 -48.6541 18.7596 -6.3253 -32.6652 0.0938926 -6.22167 0.780907 11.0758 4.23783 6.4 8.71935 10.8186 51.7534 -20.8254 -5.94462 38.2194 0.496829 -5.17592 -1.6226 -9.66927 -2.76814 4.05296 -0.053615 19.5209 -2.13286 1.13281 -13.0038 -5.7548 0.68829 24.7701 -13.4833 -1.48594 18.3311 0.236239 -0.179033 6.91063 -12.2372 
269.803 101.085 6.32481 -7.51907 4.49464 178.558 -5.12145 6.57658 -3.12856 6.27541 14.7885 -49.2421 18.4969 -6.13253 -32.0762 0.111313 -5.29199 0.812648 10.3761 2.98715 5.30881 8.75009 10.2194 51.0642 -20.8491 -5.95382 38.1717 0.507635 -4.58386 -1.62153 -12.4015 0.031984 1.49529 -0.1141 17.5343 -1.95863 0.780953 -14.9064 -6.38956 0.925191 24.5684 -13.9184 -1.48998 17.0258 0.153797 0.567523 12.7513 -10.9895 
270.211 101.155 3.94745 -8.36653 3.54288 -178.497 -3.91492 5.90406 -3.2527 6.43795 13.783 -49.3341 18.5203 -6.14053 -32.0186 0.0874288 -6.20517 0.827176 9.11183 1.73036 4.411 9.0844 9.06775 50.4897 -20.9714 -6.03155 38.3355 0.458236 -5.59471 -1.62664 -13.081 2.3038 0.320974 -0.0796374 16.1147 -1.91923 0.214135 -16.2926 -7.94259 2.16955 24.3792 -13.8728 -1.42621 16.0297 0.0492475 1.35231 16.8773 -11.3119 
270.436 101.277 1.76616 -8.89775 2.95552 -176.333 -2.26823 5.70024 -3.42793 5.24587 12.5899 -48.7181 18.5346 -6.16329 -31.996 0.0279645 -7.07035 0.844637 8.2769 0.584834 4.76245 9.99494 7.46318 51.172 -20.75 -5.93844 37.9828 0.439216 -5.79837 -1.63648 -13.5001 4.34303 -0.868476 -0.0229305 15.2234 -1.91406 -0.0597704 -17.1183 -8.55984 2.80671 24.5884 -15.1101 -1.45573 15.4429 -0.00232566 0.775042 19.8135 -8.59327 
270.607 101.404 -0.323894 -9.86716 2.22378 -174.471 -1.55528 5.42596 -3.66982 4.21869 11.6524 -47.8597 18.5881 -6.22352 -32.1005 0.00137416 -7.41559 0.842945 7.15479 -0.112088 5.01425 10.2758 6.42681 52.3333 -20.5138 -5.799 37.5406 0.428757 -6.37262 -1.64988 -14.4462 6.18026 -1.73539 -0.00358983 14.2324 -1.86618 -0.264235 -17.9156 -8.9021 2.74461 24.3841 -15.2239 -1.44171 15.127 -0.0209318 1.30929 23.0747 -8.88019 
270.835 101.489 -2.41563 -11.3537 1.3919 -172.683 -1.69918 4.61777 -3.3853 4.10556 11.8789 -47.8079 18.5826 -6.22588 -32.1076 0.000359612 -7.67106 0.84926 6.49233 0.0359765 4.8636 10.9493 6.38731 52.8936 -20.2669 -5.683 37.1705 0.438581 -5.47999 -1.65132 -16.0782 8.12168 -2.99444 0.0201398 13.0844 -1.79953 -0.279406 -18.3875 -8.71256 2.4977 24.2364 -14.5817 -1.45129 14.1917 -0.0197699 1.18385 27.8859 -7.35361 
271.11 101.476 -4.28396 -11.9986 1.06164 -170.799 -1.07661 4.81924 -3.49122 3.94913 11.7254 -47.7484 18.6023 -6.23064 -32.0884 0.031884 -7.29319 0.852514 6.36001 -0.0764715 5.71996 9.90752 6.21531 53.5362 -20.2468 -5.66141 37.088 0.455563 -5.6081 -1.6555 -16.3151 10.6599 -3.75823 0.0427343 11.4357 -1.78513 -0.450603 -18.3314 -9.39484 3.34646 24.0641 -13.844 -1.38499 14.1927 -0.0479361 1.76361 31.3294 -7.78656 
271.298 101.424 -6.09708 -11.7703 0.816033 -169.199 0.379683 4.89725 -3.04165 3.89809 11.7795 -48.1135 18.7557 -6.28846 -32.2513 0.0661144 -6.74034 0.838302 5.58828 -0.346491 5.5172 8.94928 6.05054 53.8738 -20.2195 -5.63219 37.0222 0.477044 -5.94784 -1.64276 -15.4799 12.8976 -3.54707 0.0225898 10.016 -1.80532 -0.513958 -18.8946 -9.44875 4.70241 23.0666 -13.3854 -1.31439 16.3797 -0.015953 1.50512 31.5886 -7.33322 
271.372 101.323 -7.90065 -11.645 0.534072 -167.679 1.84697 4.86915 -2.9849 3.32369 12.0024 -48.124 18.8677 -6.35172 -32.4189 0.0674539 -6.81222 0.834328 3.88184 -0.624903 5.58536 8.1022 6.11801 54.376 -20.3492 -5.70504 37.3066 0.498644 -5.8931 -1.6271 -14.9044 14.8342 -3.36539 0.00911059 9.08835 -1.82123 -0.467858 -19.4924 -9.09678 5.52202 21.4585 -12.4392 -1.23292 19.7186 0.0410977 2.39624 29.0885 -9.60634 
271.346 101.119 -9.56446 -11.3349 0.0879087 -165.677 3.32544 4.70221 -3.18274 2.45983 12.0856 -48.5686 18.9314 -6.37224 -32.4713 0.0642795 -6.72697 0.830575 2.38562 -0.700659 5.8576 7.52059 5.89674 54.8849 -20.346 -5.71976 37.4079 0.510158 -5.83772 -1.62017 -13.9544 16.367 -4.37488 0.0450461 8.31163 -1.89187 -0.693298 -19.0201 -10.2368 6.40455 18.377 -11.2153 -1.23751 24.9788 0.20355 1.88331 18.184 -12.1254 
271.354 100.868 -11.1614 -10.6131 -0.0337345 -163.65 5.048 4.77274 -3.33881 0.972916 11.765 -49.2565 18.8911 -6.36436 -32.4219 0.0782393 -5.6411 0.848458 1.13787 -0.813823 6.07118 6.88848 5.83455 55.027 -20.4145 -5.76619 37.59 0.485484 -5.96428 -1.61867 -12.1883 18.0518 -4.29526 0.057198 7.52916 -1.96006 -1.11291 -19.681 -11.4305 8.02845 15.3967 -9.22773 -1.26263 28.8928 0.371666 0.106097 9.26462 -10.7826 
271.327 100.61 -12.7252 -9.53135 -0.0546353 -161.853 7.06126 5.07787 -3.56996 0.822296 11.8439 -49.9774 18.6069 -6.17002 -31.8672 0.0855615 -5.78177 0.883181 0.0127362 -1.30889 6.39956 6.4702 5.53048 55.5201 -20.4701 -5.79505 37.7038 0.484556 -6.0616 -1.61927 -9.94716 19.3214 -4.61036 0.0913995 7.0773 -2.0476 -1.49867 -19.8719 -12.7199 9.61688 12.2988 -7.1912 -1.26264 31.1141 0.486633 -0.941802 2.80308 -9.46508 
271.191 100.409 -14.2871 -8.54767 -0.145779 -160.295 8.80005 5.37541 -3.63714 0.919432 12.5355 -49.7395 19.0995 -6.47591 -32.7465 0.0969686 -6.15486 0.845251 -0.69064 -1.65337 6.95539 5.84062 5.36468 55.9344 -20.5357 -5.82738 37.8403 0.48521 -6.36749 -1.62105 -7.86817 20.3447 -4.53896 0.121741 6.62012 -2.10641 -1.97048 -20.0878 -14.1942 10.5282 8.62306 -5.03399 -1.33191 32.8754 0.649962 -1.54006 -1.61489 -7.15887 
